<svg width="179" height="50" viewBox="0 0 179 50" fill="none" xmlns="http://www.w3.org/2000/svg">
<rect width="179" height="50" fill="#D9D9D9"/>
<path d="M33.8004 24.0597C33.6357 23.5426 33.4141 23.0795 33.1357 22.6705C32.8629 22.2557 32.5362 21.9034 32.1555 21.6136C31.7749 21.3182 31.3402 21.0937 30.8516 20.9403C30.3686 20.7869 29.8374 20.7102 29.2578 20.7102C28.2749 20.7102 27.3885 20.9631 26.5987 21.4688C25.8089 21.9744 25.1839 22.7159 24.7237 23.6932C24.2692 24.6648 24.0419 25.8551 24.0419 27.2642C24.0419 28.679 24.272 29.875 24.7322 30.8523C25.1925 31.8295 25.8232 32.571 26.6243 33.0767C27.4254 33.5824 28.3374 33.8352 29.3601 33.8352C30.3089 33.8352 31.1357 33.642 31.8402 33.2557C32.5504 32.8693 33.0987 32.3239 33.4851 31.6193C33.8771 30.9091 34.0732 30.0739 34.0732 29.1136L34.755 29.2415H29.7607V27.0682H36.6214V29.054C36.6214 30.5199 36.3089 31.7926 35.6839 32.8722C35.0646 33.946 34.2067 34.7756 33.1101 35.3608C32.0192 35.946 30.7692 36.2386 29.3601 36.2386C27.7805 36.2386 26.3942 35.875 25.201 35.1477C24.0135 34.4205 23.0874 33.3892 22.4226 32.054C21.7578 30.7131 21.4254 29.1222 21.4254 27.2812C21.4254 25.8892 21.6186 24.6392 22.005 23.5312C22.3913 22.4233 22.9339 21.483 23.6328 20.7102C24.3374 19.9318 25.1641 19.3381 26.1129 18.929C27.0675 18.5142 28.1101 18.3068 29.2408 18.3068C30.1839 18.3068 31.0618 18.446 31.8743 18.7244C32.6925 19.0028 33.4197 19.3977 34.0561 19.9091C34.6982 20.4205 35.2294 21.0284 35.6499 21.733C36.0703 22.4318 36.3544 23.2074 36.5021 24.0597H33.8004ZM45.402 36.2642C44.1122 36.2642 43.0014 35.9886 42.0696 35.4375C41.1435 34.8807 40.4276 34.0994 39.9219 33.0938C39.4219 32.0824 39.1719 30.8977 39.1719 29.5398C39.1719 28.1989 39.4219 27.017 39.9219 25.9943C40.4276 24.9716 41.1321 24.1733 42.0355 23.5994C42.9446 23.0256 44.0071 22.7386 45.223 22.7386C45.9616 22.7386 46.6776 22.8608 47.3707 23.1051C48.0639 23.3494 48.6861 23.733 49.2372 24.2557C49.7884 24.7784 50.223 25.4574 50.5412 26.2926C50.8594 27.1222 51.0185 28.1307 51.0185 29.3182V30.2216H40.6122V28.3125H48.5213C48.5213 27.642 48.3849 27.0483 48.1122 26.5312C47.8395 26.0085 47.456 25.5966 46.9616 25.2955C46.473 24.9943 45.8991 24.8438 45.2401 24.8438C44.5241 24.8438 43.8991 25.0199 43.3651 25.3722C42.8366 25.7187 42.4276 26.1733 42.1378 26.7358C41.8537 27.2926 41.7116 27.8977 41.7116 28.5511V30.0426C41.7116 30.9176 41.8651 31.6619 42.1719 32.2756C42.4844 32.8892 42.919 33.358 43.4759 33.6818C44.0327 34 44.6832 34.1591 45.4276 34.1591C45.9105 34.1591 46.3509 34.0909 46.7486 33.9545C47.1463 33.8125 47.4901 33.6023 47.7798 33.3239C48.0696 33.0455 48.2912 32.7017 48.4446 32.2926L50.8565 32.7273C50.6634 33.4375 50.3168 34.0597 49.8168 34.5938C49.3224 35.1222 48.7003 35.5341 47.9503 35.8295C47.206 36.1193 46.3565 36.2642 45.402 36.2642ZM59.9567 22.9091V24.9545H52.8061V22.9091H59.9567ZM54.7237 19.7727H57.272V32.1562C57.272 32.6506 57.3459 33.0227 57.4936 33.2727C57.6413 33.517 57.8317 33.6847 58.0646 33.7756C58.3033 33.8608 58.5618 33.9034 58.8402 33.9034C59.0447 33.9034 59.2237 33.8892 59.3771 33.8608C59.5305 33.8324 59.6499 33.8097 59.7351 33.7926L60.1953 35.8977C60.0476 35.9545 59.8374 36.0114 59.5646 36.0682C59.2919 36.1307 58.951 36.1648 58.5419 36.1705C57.8714 36.1818 57.2464 36.0625 56.6669 35.8125C56.0874 35.5625 55.6186 35.1761 55.2607 34.6534C54.9027 34.1307 54.7237 33.4744 54.7237 32.6847V19.7727ZM75.2379 22.9091V24.9545H68.0874V22.9091H75.2379ZM70.005 19.7727H72.5533V32.1562C72.5533 32.6506 72.6271 33.0227 72.7749 33.2727C72.9226 33.517 73.1129 33.6847 73.3459 33.7756C73.5845 33.8608 73.843 33.9034 74.1214 33.9034C74.326 33.9034 74.505 33.8892 74.6584 33.8608C74.8118 33.8324 74.9311 33.8097 75.0163 33.7926L75.4766 35.8977C75.3288 35.9545 75.1186 36.0114 74.8459 36.0682C74.5732 36.1307 74.2322 36.1648 73.8232 36.1705C73.1527 36.1818 72.5277 36.0625 71.9482 35.8125C71.3686 35.5625 70.8999 35.1761 70.5419 34.6534C70.1839 34.1307 70.005 33.4744 70.005 32.6847V19.7727ZM80.8864 28.2273V36H78.3381V18.5455H80.8523V25.0398H81.0142C81.321 24.3352 81.7898 23.7756 82.4205 23.3608C83.0511 22.946 83.875 22.7386 84.892 22.7386C85.7898 22.7386 86.5739 22.9233 87.2443 23.2926C87.9205 23.6619 88.4432 24.2131 88.8125 24.946C89.1875 25.6733 89.375 26.5824 89.375 27.6733V36H86.8267V27.9801C86.8267 27.0199 86.5795 26.2756 86.0852 25.7472C85.5909 25.2131 84.9034 24.946 84.0227 24.946C83.4205 24.946 82.8807 25.0739 82.4034 25.3295C81.9318 25.5852 81.5597 25.9602 81.2869 26.4545C81.0199 26.9432 80.8864 27.5341 80.8864 28.2273ZM98.4176 36.2642C97.1278 36.2642 96.017 35.9886 95.0852 35.4375C94.1591 34.8807 93.4432 34.0994 92.9375 33.0938C92.4375 32.0824 92.1875 30.8977 92.1875 29.5398C92.1875 28.1989 92.4375 27.017 92.9375 25.9943C93.4432 24.9716 94.1477 24.1733 95.0511 23.5994C95.9602 23.0256 97.0227 22.7386 98.2386 22.7386C98.9773 22.7386 99.6932 22.8608 100.386 23.1051C101.08 23.3494 101.702 23.733 102.253 24.2557C102.804 24.7784 103.239 25.4574 103.557 26.2926C103.875 27.1222 104.034 28.1307 104.034 29.3182V30.2216H93.6278V28.3125H101.537C101.537 27.642 101.401 27.0483 101.128 26.5312C100.855 26.0085 100.472 25.5966 99.9773 25.2955C99.4886 24.9943 98.9148 24.8438 98.2557 24.8438C97.5398 24.8438 96.9148 25.0199 96.3807 25.3722C95.8523 25.7187 95.4432 26.1733 95.1534 26.7358C94.8693 27.2926 94.7273 27.8977 94.7273 28.5511V30.0426C94.7273 30.9176 94.8807 31.6619 95.1875 32.2756C95.5 32.8892 95.9347 33.358 96.4915 33.6818C97.0483 34 97.6989 34.1591 98.4432 34.1591C98.9261 34.1591 99.3665 34.0909 99.7642 33.9545C100.162 33.8125 100.506 33.6023 100.795 33.3239C101.085 33.0455 101.307 32.7017 101.46 32.2926L103.872 32.7273C103.679 33.4375 103.332 34.0597 102.832 34.5938C102.338 35.1222 101.716 35.5341 100.966 35.8295C100.222 36.1193 99.3722 36.2642 98.4176 36.2642ZM114.892 36H112.097L118.378 18.5455H121.42L127.702 36H124.906L119.972 21.7159H119.835L114.892 36ZM115.361 29.1648H124.429V31.3807H115.361V29.1648ZM130.018 40.9091V22.9091H132.506V25.0312H132.719C132.867 24.7585 133.08 24.4432 133.359 24.0852C133.637 23.7273 134.023 23.4148 134.518 23.1477C135.012 22.875 135.665 22.7386 136.478 22.7386C137.535 22.7386 138.478 23.0057 139.308 23.5398C140.137 24.0739 140.788 24.8437 141.259 25.8494C141.737 26.8551 141.975 28.0653 141.975 29.4801C141.975 30.8949 141.739 32.108 141.268 33.1193C140.796 34.125 140.148 34.9006 139.325 35.446C138.501 35.9858 137.56 36.2557 136.504 36.2557C135.708 36.2557 135.058 36.1222 134.552 35.8551C134.052 35.5881 133.66 35.2756 133.376 34.9176C133.092 34.5597 132.873 34.2415 132.719 33.9631H132.566V40.9091H130.018ZM132.515 29.4545C132.515 30.375 132.648 31.1818 132.915 31.875C133.183 32.5682 133.569 33.1108 134.075 33.5028C134.58 33.8892 135.2 34.0824 135.933 34.0824C136.694 34.0824 137.33 33.8807 137.842 33.4773C138.353 33.0682 138.739 32.5142 139.001 31.8153C139.268 31.1165 139.401 30.3295 139.401 29.4545C139.401 28.5909 139.271 27.8153 139.009 27.1278C138.754 26.4403 138.367 25.8977 137.85 25.5C137.339 25.1023 136.7 24.9034 135.933 24.9034C135.194 24.9034 134.569 25.0937 134.058 25.4744C133.552 25.8551 133.168 26.3864 132.907 27.0682C132.646 27.75 132.515 28.5455 132.515 29.4545ZM144.83 40.9091V22.9091H147.319V25.0312H147.532C147.68 24.7585 147.893 24.4432 148.171 24.0852C148.45 23.7273 148.836 23.4148 149.33 23.1477C149.825 22.875 150.478 22.7386 151.29 22.7386C152.347 22.7386 153.29 23.0057 154.12 23.5398C154.95 24.0739 155.6 24.8437 156.072 25.8494C156.549 26.8551 156.788 28.0653 156.788 29.4801C156.788 30.8949 156.552 32.108 156.08 33.1193C155.609 34.125 154.961 34.9006 154.137 35.446C153.313 35.9858 152.373 36.2557 151.316 36.2557C150.521 36.2557 149.87 36.1222 149.364 35.8551C148.864 35.5881 148.472 35.2756 148.188 34.9176C147.904 34.5597 147.685 34.2415 147.532 33.9631H147.379V40.9091H144.83ZM147.327 29.4545C147.327 30.375 147.461 31.1818 147.728 31.875C147.995 32.5682 148.381 33.1108 148.887 33.5028C149.393 33.8892 150.012 34.0824 150.745 34.0824C151.506 34.0824 152.143 33.8807 152.654 33.4773C153.165 33.0682 153.552 32.5142 153.813 31.8153C154.08 31.1165 154.214 30.3295 154.214 29.4545C154.214 28.5909 154.083 27.8153 153.822 27.1278C153.566 26.4403 153.18 25.8977 152.663 25.5C152.151 25.1023 151.512 24.9034 150.745 24.9034C150.006 24.9034 149.381 25.0937 148.87 25.4744C148.364 25.8551 147.981 26.3864 147.719 27.0682C147.458 27.75 147.327 28.5455 147.327 29.4545Z" fill="black"/>
</svg>
